<mxfile host="app.diagrams.net" modified="2023-04-13T13:36:23.453Z" agent="Mozilla/5.0 (Windows NT 10.0; Win64; x64) AppleWebKit/537.36 (KHTML, like Gecko) Chrome/112.0.0.0 Safari/537.36" etag="IHc0hEjltmltc9xKU-dY" version="21.1.7" type="github">
  <diagram name="Page-1" id="f4ack1BSL_iS7l7wlotV">
    <mxGraphModel dx="858" dy="404" grid="1" gridSize="10" guides="1" tooltips="1" connect="1" arrows="1" fold="1" page="1" pageScale="1" pageWidth="850" pageHeight="1100" math="0" shadow="0">
      <root>
        <mxCell id="0" />
        <mxCell id="1" parent="0" />
        <mxCell id="egSPxXoIv8RLM-Czbz62-1" value="前台功能模块图" style="rounded=0;whiteSpace=wrap;html=1;" vertex="1" parent="1">
          <mxGeometry x="290" y="100" width="120" height="60" as="geometry" />
        </mxCell>
        <mxCell id="egSPxXoIv8RLM-Czbz62-2" value="文章列表模块" style="rounded=0;whiteSpace=wrap;html=1;" vertex="1" parent="1">
          <mxGeometry x="60" y="240" width="20" height="200" as="geometry" />
        </mxCell>
        <mxCell id="egSPxXoIv8RLM-Czbz62-3" value="文章搜索模块" style="rounded=0;whiteSpace=wrap;html=1;" vertex="1" parent="1">
          <mxGeometry x="100" y="240" width="20" height="200" as="geometry" />
        </mxCell>
        <mxCell id="egSPxXoIv8RLM-Czbz62-4" value="近期文章模块" style="rounded=0;whiteSpace=wrap;html=1;" vertex="1" parent="1">
          <mxGeometry x="150" y="240" width="20" height="200" as="geometry" />
        </mxCell>
        <mxCell id="egSPxXoIv8RLM-Czbz62-5" value="Inoreader广播模块" style="rounded=0;whiteSpace=wrap;html=1;" vertex="1" parent="1">
          <mxGeometry x="210" y="240" width="60" height="200" as="geometry" />
        </mxCell>
        <mxCell id="egSPxXoIv8RLM-Czbz62-6" value="Raindrop书签分享模块" style="rounded=0;whiteSpace=wrap;html=1;" vertex="1" parent="1">
          <mxGeometry x="290" y="240" width="60" height="200" as="geometry" />
        </mxCell>
        <mxCell id="egSPxXoIv8RLM-Czbz62-7" value="标签云模块" style="rounded=0;whiteSpace=wrap;html=1;" vertex="1" parent="1">
          <mxGeometry x="380" y="240" width="20" height="200" as="geometry" />
        </mxCell>
        <mxCell id="egSPxXoIv8RLM-Czbz62-8" value="返回顶部模块" style="rounded=0;whiteSpace=wrap;html=1;" vertex="1" parent="1">
          <mxGeometry x="415" y="240" width="20" height="200" as="geometry" />
        </mxCell>
        <mxCell id="egSPxXoIv8RLM-Czbz62-9" value="文章目录模块" style="rounded=0;whiteSpace=wrap;html=1;" vertex="1" parent="1">
          <mxGeometry x="460" y="240" width="20" height="200" as="geometry" />
        </mxCell>
        <mxCell id="egSPxXoIv8RLM-Czbz62-10" value="chatgpt总结摘要模块" style="rounded=0;whiteSpace=wrap;html=1;" vertex="1" parent="1">
          <mxGeometry x="510" y="240" width="50" height="200" as="geometry" />
        </mxCell>
        <mxCell id="egSPxXoIv8RLM-Czbz62-11" value="文章列表分页器模块" style="rounded=0;whiteSpace=wrap;html=1;" vertex="1" parent="1">
          <mxGeometry x="590" y="240" width="20" height="200" as="geometry" />
        </mxCell>
        <mxCell id="egSPxXoIv8RLM-Czbz62-12" value="评论模块" style="rounded=0;whiteSpace=wrap;html=1;" vertex="1" parent="1">
          <mxGeometry x="630" y="240" width="20" height="200" as="geometry" />
        </mxCell>
        <mxCell id="egSPxXoIv8RLM-Czbz62-13" value="画廊模块" style="rounded=0;whiteSpace=wrap;html=1;" vertex="1" parent="1">
          <mxGeometry x="660" y="240" width="20" height="200" as="geometry" />
        </mxCell>
        <mxCell id="egSPxXoIv8RLM-Czbz62-14" value="RSS模块" style="rounded=0;whiteSpace=wrap;html=1;" vertex="1" parent="1">
          <mxGeometry x="690" y="240" width="30" height="200" as="geometry" />
        </mxCell>
        <mxCell id="egSPxXoIv8RLM-Czbz62-15" value="" style="endArrow=none;html=1;rounded=0;entryX=0.5;entryY=1;entryDx=0;entryDy=0;" edge="1" parent="1" target="egSPxXoIv8RLM-Czbz62-1">
          <mxGeometry width="50" height="50" relative="1" as="geometry">
            <mxPoint x="70" y="240" as="sourcePoint" />
            <mxPoint x="70" y="180" as="targetPoint" />
            <Array as="points">
              <mxPoint x="70" y="190" />
              <mxPoint x="350" y="190" />
            </Array>
          </mxGeometry>
        </mxCell>
        <mxCell id="egSPxXoIv8RLM-Czbz62-16" value="" style="endArrow=none;html=1;rounded=0;" edge="1" parent="1">
          <mxGeometry width="50" height="50" relative="1" as="geometry">
            <mxPoint x="109.78999999999999" y="240" as="sourcePoint" />
            <mxPoint x="109.78999999999999" y="190" as="targetPoint" />
          </mxGeometry>
        </mxCell>
        <mxCell id="egSPxXoIv8RLM-Czbz62-17" value="" style="endArrow=none;html=1;rounded=0;" edge="1" parent="1">
          <mxGeometry width="50" height="50" relative="1" as="geometry">
            <mxPoint x="159.79" y="240" as="sourcePoint" />
            <mxPoint x="159.79" y="190" as="targetPoint" />
          </mxGeometry>
        </mxCell>
        <mxCell id="egSPxXoIv8RLM-Czbz62-18" value="" style="endArrow=none;html=1;rounded=0;" edge="1" parent="1">
          <mxGeometry width="50" height="50" relative="1" as="geometry">
            <mxPoint x="239.79" y="240" as="sourcePoint" />
            <mxPoint x="239.79" y="190" as="targetPoint" />
          </mxGeometry>
        </mxCell>
        <mxCell id="egSPxXoIv8RLM-Czbz62-19" value="" style="endArrow=none;html=1;rounded=0;" edge="1" parent="1">
          <mxGeometry width="50" height="50" relative="1" as="geometry">
            <mxPoint x="319.78999999999996" y="240" as="sourcePoint" />
            <mxPoint x="319.78999999999996" y="190" as="targetPoint" />
          </mxGeometry>
        </mxCell>
        <mxCell id="egSPxXoIv8RLM-Czbz62-20" value="" style="endArrow=none;html=1;rounded=0;exitX=0.5;exitY=0;exitDx=0;exitDy=0;" edge="1" parent="1" source="egSPxXoIv8RLM-Czbz62-14">
          <mxGeometry width="50" height="50" relative="1" as="geometry">
            <mxPoint x="710" y="190" as="sourcePoint" />
            <mxPoint x="350" y="160" as="targetPoint" />
            <Array as="points">
              <mxPoint x="705" y="190" />
              <mxPoint x="350" y="190" />
            </Array>
          </mxGeometry>
        </mxCell>
        <mxCell id="egSPxXoIv8RLM-Czbz62-21" value="" style="endArrow=none;html=1;rounded=0;" edge="1" parent="1">
          <mxGeometry width="50" height="50" relative="1" as="geometry">
            <mxPoint x="389.78999999999996" y="240" as="sourcePoint" />
            <mxPoint x="389.78999999999996" y="190" as="targetPoint" />
          </mxGeometry>
        </mxCell>
        <mxCell id="egSPxXoIv8RLM-Czbz62-22" value="" style="endArrow=none;html=1;rounded=0;" edge="1" parent="1">
          <mxGeometry width="50" height="50" relative="1" as="geometry">
            <mxPoint x="424.99999999999994" y="240" as="sourcePoint" />
            <mxPoint x="424.99999999999994" y="190" as="targetPoint" />
          </mxGeometry>
        </mxCell>
        <mxCell id="egSPxXoIv8RLM-Czbz62-23" value="" style="endArrow=none;html=1;rounded=0;" edge="1" parent="1">
          <mxGeometry width="50" height="50" relative="1" as="geometry">
            <mxPoint x="469.78999999999996" y="240" as="sourcePoint" />
            <mxPoint x="469.78999999999996" y="190" as="targetPoint" />
          </mxGeometry>
        </mxCell>
        <mxCell id="egSPxXoIv8RLM-Czbz62-24" value="" style="endArrow=none;html=1;rounded=0;" edge="1" parent="1">
          <mxGeometry width="50" height="50" relative="1" as="geometry">
            <mxPoint x="534.79" y="240" as="sourcePoint" />
            <mxPoint x="534.79" y="190" as="targetPoint" />
          </mxGeometry>
        </mxCell>
        <mxCell id="egSPxXoIv8RLM-Czbz62-25" value="" style="endArrow=none;html=1;rounded=0;" edge="1" parent="1">
          <mxGeometry width="50" height="50" relative="1" as="geometry">
            <mxPoint x="599.79" y="240" as="sourcePoint" />
            <mxPoint x="599.79" y="190" as="targetPoint" />
          </mxGeometry>
        </mxCell>
        <mxCell id="egSPxXoIv8RLM-Czbz62-26" value="" style="endArrow=none;html=1;rounded=0;" edge="1" parent="1">
          <mxGeometry width="50" height="50" relative="1" as="geometry">
            <mxPoint x="639.79" y="240" as="sourcePoint" />
            <mxPoint x="639.79" y="190" as="targetPoint" />
          </mxGeometry>
        </mxCell>
        <mxCell id="egSPxXoIv8RLM-Czbz62-27" value="" style="endArrow=none;html=1;rounded=0;" edge="1" parent="1">
          <mxGeometry width="50" height="50" relative="1" as="geometry">
            <mxPoint x="669.79" y="240" as="sourcePoint" />
            <mxPoint x="669.79" y="190" as="targetPoint" />
          </mxGeometry>
        </mxCell>
      </root>
    </mxGraphModel>
  </diagram>
</mxfile>
